<svg width="793" height="144" viewBox="0 0 793 144" fill="none" xmlns="http://www.w3.org/2000/svg">
<path d="M98.0039 49.5V19.5L124.504 35V65L98.0039 49.5Z" fill="#47B2E4"/>
<path d="M62.3579 0L87.0039 14.2295V44.3555L79.5581 40L79.5063 40.0889L62.0039 30L26.0039 50.75V92.25L62.0039 113L87.0039 98.5898V129.771L62.3579 144L0.00390625 108V36L62.3579 0Z" fill="#003879"/>
<path d="M98.0039 63.5342V123.42L124.711 108V79.1582L98.0039 63.5342Z" fill="#003879"/>
<path d="M173.575 114C186.383 114 193.15 106.267 193.15 93.2167V81.2542H180.583V94.1833C180.583 99.7417 177.925 101.917 173.938 101.917C169.95 101.917 167.292 99.7417 167.292 94.1833V46.9375C167.292 41.3792 169.95 39.0833 173.938 39.0833C177.925 39.0833 180.583 41.3792 180.583 46.9375V56.725H193.15V47.7833C193.15 34.7333 186.383 27 173.575 27C160.767 27 154 34.7333 154 47.7833V93.2167C154 106.267 160.767 114 173.575 114Z" fill="#003879"/>
<path d="M220.551 114C233.601 114 240.73 106.267 240.73 92.7333V48.2667C240.73 34.7333 233.601 27 220.551 27C207.501 27 200.372 34.7333 200.372 48.2667V92.7333C200.372 106.267 207.501 114 220.551 114ZM220.551 101.917C216.322 101.917 213.663 99.6208 213.663 93.5792V47.4208C213.663 41.3792 216.322 39.0833 220.551 39.0833C224.78 39.0833 227.438 41.3792 227.438 47.4208V93.5792C227.438 99.6208 224.78 101.917 220.551 101.917Z" fill="#003879"/>
<path d="M268.569 114C281.619 114 288.386 106.267 288.386 92.7333V65.0625H269.173V77.1458H275.819V93.7C275.819 99.7417 273.161 101.917 268.931 101.917C264.702 101.917 262.044 99.7417 262.044 93.7V47.4208C262.044 41.3792 264.702 39.0833 268.931 39.0833C273.161 39.0833 275.819 41.3792 275.819 47.4208V55.5167H288.386V48.2667C288.386 34.7333 281.619 27 268.569 27C255.519 27 248.752 34.7333 248.752 48.2667V92.7333C248.752 106.267 255.519 114 268.569 114Z" fill="#003879"/>
<path d="M296.919 112.792H333.169V100.708H310.211V74.7289H328.457V62.6455H310.211V40.2914H333.169V28.208H296.919V112.792Z" fill="#003879"/>
<path d="M340.816 112.792H354.108V76.5414H358.699C364.741 76.5414 367.037 79.0789 367.037 86.933V102.4C367.037 109.288 367.52 110.617 368.245 112.792H381.778C380.449 109.65 380.328 106.629 380.328 102.521V87.658C380.328 78.1122 378.153 71.8289 371.508 69.7747V69.533C377.428 67.1164 380.208 61.558 380.208 52.858V47.6622C380.208 34.6122 374.287 28.208 360.512 28.208H340.816V112.792ZM354.108 64.458V40.2914H360.149C364.862 40.2914 366.916 42.9497 366.916 48.9914V55.5164C366.916 62.283 363.895 64.458 358.941 64.458H354.108Z" fill="#003879"/>
<path d="M389.55 112.792H425.8V100.708H402.842V74.7289H421.088V62.6455H402.842V40.2914H425.8V28.208H389.55V112.792Z" fill="#003879"/>
<path d="M452.799 112.792H466.09V28.208H452.799V112.792Z" fill="#47B2E4"/>
<path d="M476.045 112.792H487.887V51.0455H488.128L504.078 112.792H517.733V28.208H505.891V78.8372H505.649L492.72 28.208H476.045V112.792Z" fill="#47B2E4"/>
<path d="M527.612 112.792H540.903V75.9372H558.062V63.8539H540.903V40.2914H562.774V28.208H527.612V112.792Z" fill="#47B2E4"/>
<path d="M588.361 114C601.411 114 608.54 106.267 608.54 92.7333V48.2667C608.54 34.7333 601.411 27 588.361 27C575.311 27 568.181 34.7333 568.181 48.2667V92.7333C568.181 106.267 575.311 114 588.361 114ZM588.361 101.917C584.131 101.917 581.473 99.6208 581.473 93.5792V47.4208C581.473 41.3792 584.131 39.0833 588.361 39.0833C592.59 39.0833 595.248 41.3792 595.248 47.4208V93.5792C595.248 99.6208 592.59 101.917 588.361 101.917Z" fill="#47B2E4"/>
<path d="M627.448 112.792H640.74V40.2914H654.636V28.208H613.552V40.2914H627.448V112.792Z" fill="#47B2E4"/>
<path d="M661.071 112.792H697.321V100.708H674.363V74.7289H692.609V62.6455H674.363V40.2914H697.321V28.208H661.071V112.792Z" fill="#47B2E4"/>
<path d="M723.697 114C736.505 114 743.272 106.267 743.272 93.2167V81.2542H730.705V94.1833C730.705 99.7417 728.047 101.917 724.059 101.917C720.072 101.917 717.413 99.7417 717.413 94.1833V46.9375C717.413 41.3792 720.072 39.0833 724.059 39.0833C728.047 39.0833 730.705 41.3792 730.705 46.9375V56.725H743.272V47.7833C743.272 34.7333 736.505 27 723.697 27C710.888 27 704.122 34.7333 704.122 47.7833V93.2167C704.122 106.267 710.888 114 723.697 114Z" fill="#47B2E4"/>
<path d="M751.224 112.792H764.516V74.7289H778.774V112.792H792.066V28.208H778.774V62.6455H764.516V28.208H751.224V112.792Z" fill="#47B2E4"/>
</svg>
